<?xml version="1.0" standalone="no"?>
<!DOCTYPE svg PUBLIC "-//W3C//DTD SVG 20010904//EN"
 "http://www.w3.org/TR/2001/REC-SVG-20010904/DTD/svg10.dtd">
<svg version="1.0" xmlns="http://www.w3.org/2000/svg"
 width="854.000000pt" height="854.000000pt" viewBox="0 0 854.000000 854.000000"
 preserveAspectRatio="xMidYMid meet">
<metadata>
Created by potrace 1.14, written by Peter Selinger 2001-2017
</metadata>
<g transform="translate(0.000000,854.000000) scale(0.100000,-0.100000)"
fill="#000000" stroke="none">
<path d="M4258 8503 c-9 -16 -24 -37 -33 -48 -17 -22 -134 -187 -150 -213 -11
-18 -9 -15 -75 -104 -27 -38 -46 -68 -42 -68 4 0 2 -4 -4 -8 -6 -4 -28 -32
-49 -62 -59 -84 -89 -125 -98 -128 -4 -2 -5 -7 -2 -11 2 -5 -7 -19 -20 -31
-14 -13 -25 -28 -25 -33 0 -5 -11 -23 -25 -41 -14 -17 -29 -35 -33 -41 -9 -12
-82 -119 -97 -142 -5 -9 -16 -23 -23 -32 -31 -36 -102 -141 -102 -150 0 -5 -4
-11 -8 -13 -4 -1 -58 -75 -120 -163 -61 -88 -115 -164 -119 -170 -16 -19 -101
-140 -134 -190 -18 -27 -35 -52 -38 -55 -4 -3 -20 -25 -37 -50 -17 -25 -46
-65 -63 -90 -17 -25 -43 -63 -58 -85 -14 -22 -29 -42 -33 -45 -4 -3 -29 -36
-55 -75 -27 -38 -63 -90 -80 -115 -17 -25 -53 -76 -80 -115 -110 -157 -154
-221 -162 -230 -5 -5 -17 -23 -27 -40 -11 -16 -23 -34 -28 -40 -5 -5 -40 -55
-78 -110 -39 -55 -73 -105 -77 -110 -49 -65 -63 -85 -63 -93 0 -6 -4 -12 -8
-14 -7 -3 -224 -306 -247 -346 -5 -9 -12 -19 -15 -22 -3 -3 -17 -21 -30 -40
-13 -19 -27 -37 -30 -40 -3 -3 -23 -32 -45 -64 -22 -33 -46 -65 -53 -73 -7 -7
-10 -13 -5 -13 4 0 3 -4 -2 -8 -15 -10 -135 -181 -135 -191 0 -5 -3 -11 -8
-13 -7 -3 -29 -33 -191 -263 -177 -252 -172 -244 -161 -264 5 -11 16 -26 22
-33 7 -8 18 -21 23 -30 29 -47 199 -283 206 -286 5 -2 9 -8 9 -12 0 -11 140
-212 155 -222 5 -4 7 -8 3 -8 -5 0 2 -11 13 -24 11 -13 42 -55 67 -93 26 -37
59 -84 75 -104 15 -20 27 -40 27 -45 0 -5 9 -16 20 -24 11 -8 20 -18 20 -21 0
-4 39 -63 87 -131 47 -68 96 -136 107 -153 12 -16 23 -32 27 -35 3 -3 15 -21
27 -40 11 -20 33 -49 47 -65 14 -17 31 -42 38 -58 6 -15 15 -27 19 -27 4 0 15
-15 24 -32 9 -18 20 -35 24 -38 7 -5 57 -75 118 -165 19 -27 39 -53 45 -57 7
-4 9 -8 5 -8 -5 0 7 -20 25 -44 17 -23 39 -53 47 -65 8 -13 22 -31 30 -41 8
-10 44 -62 80 -115 36 -53 72 -105 80 -115 8 -11 35 -49 60 -85 25 -37 62 -88
83 -115 20 -26 37 -51 37 -54 0 -4 11 -19 25 -34 14 -15 25 -32 25 -39 0 -7 4
-13 9 -13 5 0 12 -8 15 -17 5 -16 19 -35 66 -90 5 -7 10 -15 10 -18 0 -4 6
-13 13 -20 6 -8 44 -59 82 -115 39 -55 105 -150 148 -210 42 -59 77 -114 77
-120 0 -6 4 -8 10 -5 5 3 10 0 10 -8 0 -7 8 -22 18 -33 9 -11 22 -27 27 -36
26 -40 91 -134 95 -138 7 -6 115 -159 155 -220 16 -25 33 -47 36 -50 3 -3 25
-34 49 -70 24 -36 47 -67 52 -68 4 -2 8 -8 8 -13 0 -6 5 -15 10 -22 22 -26
338 -472 365 -515 14 -23 35 -45 39 -41 8 10 132 186 141 201 8 14 83 120 127
180 30 42 69 96 224 318 90 129 167 240 172 245 15 19 108 150 124 175 9 14
44 63 77 110 34 47 82 117 108 155 26 39 50 72 53 75 4 3 45 61 93 130 48 69
93 134 101 145 14 19 82 115 173 244 21 29 44 59 51 67 6 7 12 15 12 18 0 5
62 96 83 121 28 34 157 226 157 234 0 5 4 11 9 13 12 4 231 316 231 329 0 6 5
7 10 4 6 -3 10 0 10 7 0 7 17 36 38 63 37 50 68 93 87 123 6 9 15 22 20 28 6
7 25 34 43 61 19 26 78 111 133 188 54 77 104 148 111 159 7 10 27 37 45 61
18 23 29 45 26 49 -4 3 -2 6 4 6 6 0 30 30 54 66 24 37 48 72 54 78 6 6 26 34
45 61 85 126 102 150 130 185 17 21 30 42 30 47 0 5 10 20 22 33 12 13 41 51
63 84 23 34 62 91 88 128 l47 67 -75 106 c-41 58 -75 110 -75 115 0 4 -3 10
-7 12 -10 4 -40 44 -118 158 -32 47 -62 87 -67 88 -4 2 -8 8 -8 13 0 5 -26 45
-57 88 -32 44 -82 115 -112 158 -30 43 -76 108 -103 144 -26 37 -48 72 -48 78
0 6 -4 11 -9 11 -5 0 -18 15 -30 33 -11 17 -37 56 -58 86 -21 30 -42 61 -48
70 -5 9 -12 18 -15 21 -16 15 -80 109 -80 118 0 6 -4 12 -8 14 -5 2 -53 66
-107 143 -54 77 -155 220 -224 318 -69 98 -133 189 -141 202 -34 52 -176 254
-217 307 -24 31 -43 59 -43 62 0 3 -6 14 -14 23 -43 52 -86 114 -86 123 0 6
-4 10 -10 10 -5 0 -10 6 -10 14 0 8 -4 16 -8 18 -4 2 -33 39 -63 83 -29 44
-58 85 -64 91 -5 6 -16 20 -22 30 -25 38 -287 409 -310 440 -4 5 -12 17 -18
26 -22 36 -99 144 -111 156 -7 6 -16 21 -19 32 -3 11 -10 20 -15 20 -5 0 -11
8 -14 18 -3 9 -16 29 -28 44 -13 15 -57 75 -98 135 -41 59 -77 110 -80 113 -3
3 -9 12 -15 21 -28 46 -100 144 -107 147 -4 2 -8 10 -8 18 0 8 -4 14 -10 14
-5 0 -10 4 -10 10 0 5 -22 40 -50 77 -27 37 -59 82 -70 98 -12 17 -39 54 -60
84 -22 30 -40 58 -40 63 0 17 -16 7 -32 -19z"/>
<path d="M4713 162 c-13 -2 -23 -7 -23 -12 0 -4 9 -6 20 -3 22 6 22 7 25 -62
4 -71 4 -72 16 -52 6 10 9 36 6 57 -4 37 3 63 17 61 19 -3 29 0 23 6 -8 7 -50
10 -84 5z"/>
<path d="M4837 163 c-12 -11 -8 -133 4 -133 6 0 10 15 9 33 -3 58 1 63 20 25
28 -52 35 -53 56 -8 10 22 21 40 24 40 3 0 5 -20 4 -45 -1 -27 2 -45 8 -43 6
2 11 32 12 66 1 75 -16 81 -48 15 -12 -23 -25 -42 -29 -43 -5 0 -5 4 -2 10 3
5 1 10 -4 10 -6 0 -11 4 -11 10 0 17 -36 70 -43 63z"/>
</g>
</svg>
